G04 #@! TF.GenerationSoftware,KiCad,Pcbnew,(2017-06-21 revision 54670d678)-makepkg*
G04 #@! TF.CreationDate,2017-10-16T22:16:11+02:00*
G04 #@! TF.ProjectId,plytkaPrzekaznikow,706C79746B6150727A656B617A6E696B,rev?*
G04 #@! TF.SameCoordinates,Original
G04 #@! TF.FileFunction,Legend,Bot*
G04 #@! TF.FilePolarity,Positive*
%FSLAX46Y46*%
G04 Gerber Fmt 4.6, Leading zero omitted, Abs format (unit mm)*
G04 Created by KiCad (PCBNEW (2017-06-21 revision 54670d678)-makepkg) date 10/16/17 22:16:11*
%MOMM*%
%LPD*%
G01*
G04 APERTURE LIST*
%ADD10C,0.100000*%
%ADD11C,0.150000*%
G04 APERTURE END LIST*
D10*
D11*
X122383300Y-118207306D02*
X123097586Y-118207306D01*
X123240443Y-118159687D01*
X123335681Y-118064449D01*
X123383300Y-117921592D01*
X123383300Y-117826354D01*
X123383300Y-118683497D02*
X122383300Y-118683497D01*
X122383300Y-119064449D01*
X122430920Y-119159687D01*
X122478539Y-119207306D01*
X122573777Y-119254925D01*
X122716634Y-119254925D01*
X122811872Y-119207306D01*
X122859491Y-119159687D01*
X122907110Y-119064449D01*
X122907110Y-118683497D01*
X122383300Y-119588259D02*
X122383300Y-120207306D01*
X122764253Y-119873973D01*
X122764253Y-120016830D01*
X122811872Y-120112068D01*
X122859491Y-120159687D01*
X122954729Y-120207306D01*
X123192824Y-120207306D01*
X123288062Y-120159687D01*
X123335681Y-120112068D01*
X123383300Y-120016830D01*
X123383300Y-119731116D01*
X123335681Y-119635878D01*
X123288062Y-119588259D01*
X119898598Y-118207306D02*
X120612884Y-118207306D01*
X120755741Y-118159687D01*
X120850979Y-118064449D01*
X120898598Y-117921592D01*
X120898598Y-117826354D01*
X120898598Y-118683497D02*
X119898598Y-118683497D01*
X119898598Y-119064449D01*
X119946218Y-119159687D01*
X119993837Y-119207306D01*
X120089075Y-119254925D01*
X120231932Y-119254925D01*
X120327170Y-119207306D01*
X120374789Y-119159687D01*
X120422408Y-119064449D01*
X120422408Y-118683497D01*
X119993837Y-119635878D02*
X119946218Y-119683497D01*
X119898598Y-119778735D01*
X119898598Y-120016830D01*
X119946218Y-120112068D01*
X119993837Y-120159687D01*
X120089075Y-120207306D01*
X120184313Y-120207306D01*
X120327170Y-120159687D01*
X120898598Y-119588259D01*
X120898598Y-120207306D01*
X117383300Y-118207306D02*
X118097586Y-118207306D01*
X118240443Y-118159687D01*
X118335681Y-118064449D01*
X118383300Y-117921592D01*
X118383300Y-117826354D01*
X118383300Y-118683497D02*
X117383300Y-118683497D01*
X117383300Y-119064449D01*
X117430920Y-119159687D01*
X117478539Y-119207306D01*
X117573777Y-119254925D01*
X117716634Y-119254925D01*
X117811872Y-119207306D01*
X117859491Y-119159687D01*
X117907110Y-119064449D01*
X117907110Y-118683497D01*
X118383300Y-120207306D02*
X118383300Y-119635878D01*
X118383300Y-119921592D02*
X117383300Y-119921592D01*
X117526158Y-119826354D01*
X117621396Y-119731116D01*
X117669015Y-119635878D01*
D10*
X96926190Y-117183333D02*
X97283333Y-117183333D01*
X97354761Y-117159523D01*
X97402380Y-117111904D01*
X97426190Y-117040476D01*
X97426190Y-116992857D01*
X97426190Y-117421428D02*
X96926190Y-117421428D01*
X96926190Y-117611904D01*
X96950000Y-117659523D01*
X96973809Y-117683333D01*
X97021428Y-117707142D01*
X97092857Y-117707142D01*
X97140476Y-117683333D01*
X97164285Y-117659523D01*
X97188095Y-117611904D01*
X97188095Y-117421428D01*
X96926190Y-118159523D02*
X96926190Y-117921428D01*
X97164285Y-117897619D01*
X97140476Y-117921428D01*
X97116666Y-117969047D01*
X97116666Y-118088095D01*
X97140476Y-118135714D01*
X97164285Y-118159523D01*
X97211904Y-118183333D01*
X97330952Y-118183333D01*
X97378571Y-118159523D01*
X97402380Y-118135714D01*
X97426190Y-118088095D01*
X97426190Y-117969047D01*
X97402380Y-117921428D01*
X97378571Y-117897619D01*
X88926190Y-109583333D02*
X89283333Y-109583333D01*
X89354761Y-109559523D01*
X89402380Y-109511904D01*
X89426190Y-109440476D01*
X89426190Y-109392857D01*
X89426190Y-109821428D02*
X88926190Y-109821428D01*
X88926190Y-110011904D01*
X88950000Y-110059523D01*
X88973809Y-110083333D01*
X89021428Y-110107142D01*
X89092857Y-110107142D01*
X89140476Y-110083333D01*
X89164285Y-110059523D01*
X89188095Y-110011904D01*
X89188095Y-109821428D01*
X88926190Y-110273809D02*
X88926190Y-110607142D01*
X89426190Y-110392857D01*
M02*
