M48
;DRILL file {KiCad (2017-06-21 revision 54670d678)-makepkg} date 10/03/17 21:39:58
;FORMAT={-:-/ absolute / inch / decimal}
FMAT,2
INCH,TZ
T1C0.016
T2C0.031
T3C0.039
T4C0.039
T5C0.040
T6C0.051
T7C0.052
T8C0.055
%
G90
G05
M72
T1
X2.5197Y-4.2913
X3.4843Y-4.2717
X3.7795Y-4.6555
T2
X2.285Y-5.3525
X2.285Y-5.415
X2.3475Y-5.3525
X2.3475Y-5.415
X3.75Y-4.975
X3.95Y-4.775
X4.65Y-4.45
X4.65Y-4.525
X5.1425Y-4.0275
X3.622Y-5.6449
X3.622Y-5.9449
X3.722Y-5.6449
X3.722Y-5.9449
X3.822Y-5.6449
X3.822Y-5.9449
X7.6378Y-5.6449
X7.6378Y-5.9449
X7.7378Y-5.6449
X7.7378Y-5.9449
X7.8378Y-5.6449
X7.8378Y-5.9449
X6.2992Y-5.6449
X6.2992Y-5.9449
X6.3992Y-5.6449
X6.3992Y-5.9449
X6.4992Y-5.6449
X6.4992Y-5.9449
X4.9606Y-5.6449
X4.9606Y-5.9449
X5.0606Y-5.6449
X5.0606Y-5.9449
X5.1606Y-5.6449
X5.1606Y-5.9449
X6.45Y-4.1
X6.45Y-4.4
X6.55Y-4.1
X6.55Y-4.4
X6.65Y-4.1
X6.65Y-4.4
X6.75Y-4.1
X6.75Y-4.4
X6.85Y-4.1
X6.85Y-4.4
X6.95Y-4.1
X6.95Y-4.4
X7.05Y-4.1
X7.05Y-4.4
X7.15Y-4.1
X7.15Y-4.4
X7.25Y-4.1
X7.25Y-4.4
X4.2913Y-5.6449
X4.2913Y-5.9449
X4.3913Y-5.6449
X4.3913Y-5.9449
X4.4913Y-5.6449
X4.4913Y-5.9449
X5.6299Y-5.6449
X5.6299Y-5.9449
X5.7299Y-5.6449
X5.7299Y-5.9449
X5.8299Y-5.6449
X5.8299Y-5.9449
X2.9528Y-5.6449
X2.9528Y-5.9449
X3.0528Y-5.6449
X3.0528Y-5.9449
X3.1528Y-5.6449
X3.1528Y-5.9449
X4.8024Y-4.1634
X4.8024Y-4.7634
X4.9024Y-4.1634
X4.9024Y-4.7634
X5.0024Y-4.1634
X5.0024Y-4.7634
X5.1024Y-4.1634
X5.1024Y-4.7634
X5.2024Y-4.1634
X5.2024Y-4.7634
X5.3024Y-4.1634
X5.3024Y-4.7634
X5.4024Y-4.1634
X5.4024Y-4.7634
X5.5024Y-4.1634
X5.5024Y-4.7634
X5.6024Y-4.1634
X5.6024Y-4.7634
X5.7024Y-4.1634
X5.7024Y-4.7634
X5.8024Y-4.1634
X5.8024Y-4.7634
X5.9024Y-4.1634
X5.9024Y-4.7634
X6.0024Y-4.1634
X6.0024Y-4.7634
X6.1024Y-4.1634
X6.1024Y-4.7634
X6.9685Y-5.6449
X6.9685Y-5.9449
X7.0685Y-5.6449
X7.0685Y-5.9449
X7.1685Y-5.6449
X7.1685Y-5.9449
T3
X6.4961Y-6.1024
X6.4961Y-6.2024
X7.8346Y-6.1024
X7.8346Y-6.2024
X3.1496Y-6.1106
X3.1496Y-6.2106
X5.8268Y-6.1024
X5.8268Y-6.2024
X7.1654Y-6.1024
X7.1654Y-6.2024
X3.8189Y-6.1024
X3.8189Y-6.2024
X4.4882Y-6.1024
X4.4882Y-6.2024
X5.1575Y-6.1024
X5.1575Y-6.2024
T4
X2.3228Y-5.6299
X2.6228Y-5.6299
X2.2441Y-4.4276
X2.2441Y-4.5276
X2.2441Y-4.6276
T5
X3.425Y-4.45
X3.425Y-4.55
X3.525Y-4.45
X3.525Y-4.55
X3.625Y-4.45
X3.625Y-4.55
X3.725Y-4.45
X3.725Y-4.55
X3.825Y-4.45
X3.825Y-4.55
T6
X6.6535Y-2.748
X6.6555Y-3.2303
X6.8898Y-3.3071
X7.128Y-2.75
X7.128Y-3.2303
X3.8189Y-2.748
X3.8209Y-3.2303
X4.0551Y-3.3071
X4.2933Y-2.75
X4.2933Y-3.2303
X7.3622Y-2.748
X7.3642Y-3.2303
X7.5984Y-3.3071
X7.8366Y-2.75
X7.8366Y-3.2303
X4.5276Y-2.748
X4.5295Y-3.2303
X4.7638Y-3.3071
X5.002Y-2.75
X5.002Y-3.2303
X2.4016Y-2.748
X2.4035Y-3.2303
X2.6378Y-3.3071
X2.876Y-2.75
X2.876Y-3.2303
X5.2362Y-2.748
X5.2382Y-3.2303
X5.4724Y-3.3071
X5.7106Y-2.75
X5.7106Y-3.2303
X5.9449Y-2.748
X5.9469Y-3.2303
X6.1811Y-3.3071
X6.4193Y-2.75
X6.4193Y-3.2303
X3.1102Y-2.748
X3.1122Y-3.2303
X3.3465Y-3.3071
X3.5846Y-2.75
X3.5846Y-3.2303
T7
X2.4409Y-2.2835
X2.6378Y-2.2835
X2.8346Y-2.2835
X3.622Y-6.6929
X3.8189Y-6.6929
X7.6378Y-6.6929
X7.8346Y-6.6929
X7.4016Y-2.2835
X7.5984Y-2.2835
X7.7953Y-2.2835
X4.5669Y-2.2835
X4.7638Y-2.2835
X4.9606Y-2.2835
X5.6299Y-6.6929
X5.8268Y-6.6929
X2.2441Y-6.2992
X2.4409Y-6.2992
X2.6378Y-6.2992
X2.9528Y-6.6929
X3.1496Y-6.6929
X3.8583Y-2.2835
X4.0551Y-2.2835
X4.252Y-2.2835
X4.9606Y-6.6929
X5.1575Y-6.6929
X6.6929Y-2.2835
X6.8898Y-2.2835
X7.0866Y-2.2835
X6.9685Y-6.6929
X7.1654Y-6.6929
X3.1496Y-2.2835
X3.3465Y-2.2835
X3.5433Y-2.2835
X4.2913Y-6.6929
X4.4882Y-6.6929
X5.9843Y-2.2835
X6.1811Y-2.2835
X6.378Y-2.2835
X6.2992Y-6.6929
X6.4961Y-6.6929
X5.2756Y-2.2835
X5.4724Y-2.2835
X5.6693Y-2.2835
T8
X2.4Y-3.65
X2.65Y-5.375
X2.825Y-5.675
T0
M30
